<svg xmlns="http://www.w3.org/2000/svg" viewBox="0 0 356.12 65.56"><defs><style>.cls-1{fill:#244d87;}.cls-2{fill:#131433;}.cls-3{fill:#3057d5;stroke:#3057d5;stroke-miterlimit:10;stroke-width:3px;}</style></defs><title>Asset 1</title><g id="Layer_2" data-name="Layer 2"><g id="Layer_1-2" data-name="Layer 1"><path class="cls-1" d="M164,48.48c-3.36,7.64-9.32,11.67-18.31,11.67-13.44,0-19.91-10.25-19.91-21.84s6.47-21.84,19.91-21.84c9,0,15,4,18.31,11.67l-7.81,3.36c-2-4.53-5.46-7.3-10.5-7.3-7.48,0-10.67,6.13-10.67,14.11s3.19,14.11,10.67,14.11c5,0,8.48-2.77,10.5-7.3Z"/><path class="cls-1" d="M187.34,33.44h7.31V31.59c0-5.29-3.78-7.39-8.24-7.39a8.14,8.14,0,0,0-7.89,5.63l-8-1.69c1.77-7.14,7.82-11.67,16-11.67,9.83,0,16.88,4.28,16.88,16.72V59.48H196l-.84-5.54C192.38,57.8,188,60.15,182,60.15c-7,0-13-4-13-12.85S176.5,33.44,187.34,33.44Zm-3.78,19c5.37,0,11.09-3.44,11.09-10.75v-.92H187c-5.38,0-8.74,2.52-8.74,6.55C178.26,50.16,179.86,52.42,183.56,52.42Z"/><path class="cls-1" d="M212.45,59.48V17.14h8.74V24.2a15,15,0,0,1,12.52-7.73,14.67,14.67,0,0,1,5.38,1l-1.52,8a9.64,9.64,0,0,0-4.95-1.26c-5.63,0-11.43,6.21-11.43,19.57V59.48Z"/><path class="cls-1" d="M268,23.19l-5.55,4.87a9.18,9.18,0,0,0-7.39-3.86,4,4,0,0,0-4.2,4.2c0,3,3.19,4.37,7.56,6.05,5.71,2.18,11.85,4.7,11.85,12.26,0,7.31-5.63,13.44-14.71,13.44-8.73,0-14.19-6-16.38-11.34l7.39-4c1.68,3.78,4.63,7.64,9.33,7.64,3.36,0,5.71-1.67,5.71-5.54,0-3.7-5.12-4.71-10.08-6.8s-9.07-5.13-9.07-11.6,5.37-12,13-12A14.79,14.79,0,0,1,268,23.19Z"/><path class="cls-1" d="M286.89,0V24.36a17.31,17.31,0,0,1,14.28-7.89c7.82,0,12.52,4.2,12.52,13.19V59.48H305V31.93c0-6.47-2.68-7.73-6.63-7.73-4.79,0-11.43,6.13-11.43,17.39V59.48h-8.74V0Z"/><path class="cls-1" d="M340.07,33.44h7.31V31.59c0-5.29-3.78-7.39-8.23-7.39a8.15,8.15,0,0,0-7.9,5.63l-8-1.69c1.76-7.14,7.81-11.67,16-11.67,9.83,0,16.89,4.28,16.89,16.72V59.48h-7.4l-.84-5.54c-2.77,3.86-7.14,6.21-13.1,6.21-7.06,0-13-4-13-12.85S329.23,33.44,340.07,33.44Zm-3.78,19c5.38,0,11.09-3.44,11.09-10.75v-.92h-7.65c-5.37,0-8.73,2.52-8.73,6.55C331,50.16,332.59,52.42,336.29,52.42Z"/><path class="cls-2" d="M164,48.48c-3.36,7.64-9.32,11.67-18.31,11.67-13.44,0-19.91-10.25-19.91-21.84s6.47-21.84,19.91-21.84c9,0,15,4,18.31,11.67l-7.81,3.36c-2-4.53-5.46-7.3-10.5-7.3-7.48,0-10.67,6.13-10.67,14.11s3.19,14.11,10.67,14.11c5,0,8.48-2.77,10.5-7.3Z"/><path class="cls-2" d="M187.34,33.44h7.31V31.59c0-5.29-3.78-7.39-8.24-7.39a8.14,8.14,0,0,0-7.89,5.63l-8-1.69c1.77-7.14,7.82-11.67,16-11.67,9.83,0,16.88,4.28,16.88,16.72V59.48H196l-.84-5.54C192.38,57.8,188,60.15,182,60.15c-7,0-13-4-13-12.85S176.5,33.44,187.34,33.44Zm-3.78,19c5.37,0,11.09-3.44,11.09-10.75v-.92H187c-5.38,0-8.74,2.52-8.74,6.55C178.26,50.16,179.86,52.42,183.56,52.42Z"/><path class="cls-2" d="M212.45,59.48V17.14h8.74V24.2a15,15,0,0,1,12.52-7.73,14.67,14.67,0,0,1,5.38,1l-1.52,8a9.64,9.64,0,0,0-4.95-1.26c-5.63,0-11.43,6.21-11.43,19.57V59.48Z"/><path class="cls-2" d="M268,23.19l-5.55,4.87a9.18,9.18,0,0,0-7.39-3.86,4,4,0,0,0-4.2,4.2c0,3,3.19,4.37,7.56,6.05,5.71,2.18,11.85,4.7,11.85,12.26,0,7.31-5.63,13.44-14.71,13.44-8.73,0-14.19-6-16.38-11.34l7.39-4c1.68,3.78,4.63,7.64,9.33,7.64,3.36,0,5.71-1.67,5.71-5.54,0-3.7-5.12-4.71-10.08-6.8s-9.07-5.13-9.07-11.6,5.37-12,13-12A14.79,14.79,0,0,1,268,23.19Z"/><path class="cls-2" d="M286.89,0V24.36a17.31,17.31,0,0,1,14.28-7.89c7.82,0,12.52,4.2,12.52,13.19V59.48H305V31.93c0-6.47-2.68-7.73-6.63-7.73-4.79,0-11.43,6.13-11.43,17.39V59.48h-8.74V0Z"/><path class="cls-2" d="M340.07,33.44h7.31V31.59c0-5.29-3.78-7.39-8.23-7.39a8.15,8.15,0,0,0-7.9,5.63l-8-1.69c1.76-7.14,7.81-11.67,16-11.67,9.83,0,16.89,4.28,16.89,16.72V59.48h-7.4l-.84-5.54c-2.77,3.86-7.14,6.21-13.1,6.21-7.06,0-13-4-13-12.85S329.23,33.44,340.07,33.44Zm-3.78,19c5.38,0,11.09-3.44,11.09-10.75v-.92h-7.65c-5.37,0-8.73,2.52-8.73,6.55C331,50.16,332.59,52.42,336.29,52.42Z"/><path class="cls-3" d="M81.19,55.15H43.75a1.64,1.64,0,0,1,0-3.27H81.19a1.64,1.64,0,1,1,0,3.27Z"/><path class="cls-3" d="M34.85,64.06A10.55,10.55,0,1,1,45.39,53.51,10.56,10.56,0,0,1,34.85,64.06Zm0-17.82a7.28,7.28,0,1,0,7.27,7.27A7.28,7.28,0,0,0,34.85,46.24Z"/><path class="cls-3" d="M90.1,64.06a10.55,10.55,0,1,1,10.55-10.55A10.56,10.56,0,0,1,90.1,64.06Zm0-17.82a7.28,7.28,0,1,0,7.27,7.27A7.28,7.28,0,0,0,90.1,46.24Z"/><path class="cls-3" d="M81.2,55.15H43.76a1.64,1.64,0,1,1,0-3.27H81.2a1.64,1.64,0,1,1,0,3.27Z"/><path class="cls-3" d="M106.87,55.15H99a1.64,1.64,0,1,1,0-3.27h7.87a4.07,4.07,0,0,0,4-3.46l1.75-11.18a2.91,2.91,0,0,0-2.52-3.32L88.33,31.26a1.71,1.71,0,0,1-.86-.37L67.76,14.32a7.23,7.23,0,0,0-4.66-1.7H32.25a4.43,4.43,0,0,0-3.74,2.05L19.29,29.1a1.61,1.61,0,0,1-.9.68L7.25,33.14A3.5,3.5,0,0,0,4.82,37L6.38,47a5.74,5.74,0,0,0,5.7,4.88H25.93a1.64,1.64,0,1,1,0,3.27H12.08a9,9,0,0,1-8.94-7.65l-1.56-10A6.79,6.79,0,0,1,6.3,30l10.56-3.18L25.75,12.9a7.71,7.71,0,0,1,6.5-3.55H63.11a10.51,10.51,0,0,1,6.76,2.46L89.21,28.07l21.33,2.6a6.16,6.16,0,0,1,5.35,7.08l-1.74,11.17A7.33,7.33,0,0,1,106.87,55.15Z"/><path class="cls-3" d="M70.8,32.54H33.24a1.64,1.64,0,0,1,0-3.28H70.8a1.64,1.64,0,1,1,0,3.28Z"/></g></g></svg>